<!-- Created with Inkscape (http://www.inkscape.org/) -->
<svg xmlns:rdf="http://www.w3.org/1999/02/22-rdf-syntax-ns#" xmlns="http://www.w3.org/2000/svg" height="100%" width="100%" version="1.1" xmlns:cc="http://creativecommons.org/ns#" xmlns:dc="http://purl.org/dc/elements/1.1/" viewBox="0 0 140 260">
<metadata>
<rdf:RDF>
<cc:Work rdf:about="">
<dc:format>image/svg+xml</dc:format>
<dc:type rdf:resource="http://purl.org/dc/dcmitype/StillImage"/>
<dc:title/>
</cc:Work>
</rdf:RDF>
</metadata>
<defs>
<mask id="mask3122" height="1" width="1" y="0" x="0" maskUnits="userSpaceOnUse">
<g clip-path="url(#clipPath3112)">
<path d="m-178.33-200.16,136.87,0,0,279.27-136.87,0,0-279.27z" fill="url(#linearGradient3116)"/>
</g>
</mask>
<linearGradient id="linearGradient3116" y2="-34.837" gradientUnits="userSpaceOnUse" x2="-197" y1="-30.431" x1="-32.617">
<stop stop-opacity="0.46956588" stop-color="#ffffff" offset="0"/>
<stop stop-opacity="0" stop-color="#ffffff" offset="1"/>
</linearGradient>
<clipPath id="clipPath3112" clipPathUnits="userSpaceOnUse">
<path d="m-178.33-200.16,136.87,0,0,279.27-136.87,0,0-279.27z"/>
</clipPath>
<clipPath id="clipPath3104" clipPathUnits="userSpaceOnUse">
<path d="M83.086,762.1c-12.77-0.29-25.406-8.1-32.887-23.71-4.59-9.582-5.742-14.801-5.742-26.399,0-13.32,2.574-22.543,9.109-32.73,1.231-1.918,2.118-3.602,1.969-3.731-0.152-0.129-2.715-0.945-5.695-1.832-6.184-1.828-11.004-4.402-12.637-6.734-0.246-0.352-0.437-0.981-0.586-2.352-0.152-1.367-0.262-3.461-0.34-6.781s2.266-13.437,2.239-19.641c-0.032-6.203-2.422-8.5-2.422-18.511v-11.414s-0.813-7.723,0-11.438c0.816-3.719,4.633-6.226,4.769-10.355,0.141-4.125-3.715-7.758-3.707-10.621,0.012-2.864,1.582-4.184,1.582-4.184,5.93-5.203,19.614-8.652,38.223-9.648,7.152-0.387,20.465,0.257,28.754,1.398,12.535,1.727,22.644,5.402,25.789,9.402,1.504,1.914,1.516,2.328,1.516,46.996v45.047l-1.899,2.262c-2.285,2.711-5.555,4.449-12.254,6.531-2.754,0.856-5.445,1.688-5.965,1.852-0.683,0.215-0.441,0.965,0.86,2.668,2.828,3.711,6.789,12.652,8.383,18.918,2.777,10.89,1.726,27.117-2.438,37.433-7.508,18.578-22.145,27.907-36.621,27.575zm-3.524-58.926c3.161-0.098,5.051-3.485,8.543-3.684,17.481-1,28.907-7.027,25.34-13.383-1.441-2.562-6.57-5.617-11.89-7.074-5.055-1.387-23.309-2.051-28.934-1.039-11.473,2.059-18.734,7.227-16.953,12.047,0.539,1.457-0.168,5.172,1.809,6.398,1.976,1.227,6.644-0.035,9.628,0.836,1.497,0.434,4.668,0.293,6.805,1.606,2.137,1.308,3.235,4.051,5.02,4.246,0.222,0.027,0.422,0.055,0.632,0.047zm-10.261-28.97c2.394,0,4.847-0.207,6.961-0.793,6.758-1.875,8.09-2.148,8.09-2.148s0.011-1.199,0.046-3.344c0.036-2.144,0.09-5.254,0.137-9.062,0.047-3.813,0.082-7.274,0.113-12.274,0.028-5-3.132-11.266-3.144-16.976-0.012-5.711,3.41-12.434,4.656-18.375,1.223-5.817,0.586-11.895,0.41-17.586-0.175-5.696-2.652-14.918-0.566-19.442,0.945-2.047,3.723-5.863,3.277-9.629-33.289-0.644-46.605,6.711-48.304,10.262-1.696,3.555,4.16,7.254,4.339,11.438,0.184,4.183-4.164,7.726-5.128,13.562-0.969,5.836,0.035,13.988,0.699,21s1.703,13.566,1.785,21c0.082,7.43-7.348,19.551-1.715,24.434,5.629,4.879,18.148,6.937,18.148,6.937s4.922,0.992,10.196,0.996zm5.851-7.687-0.019-30.606-0.024-30.601-2.328-1.086c-7.078-3.289,1.531-8.489,9.469-5.719,3.004,1.047,3.723,3.398,1.582,5.129-0.887,0.723-2.375,1.312-3.32,1.312h-1.719l-0.203,30.559-0.18,30.562-1.629,0.223-1.629,0.227zm18.153-0.09c1.308,0,1.379-0.867,1.379-19.824v-19.797l1.785-0.453c0.984-0.246,2.148-1.129,2.597-1.969,0.676-1.254,0.551-1.801-0.675-3.027-1.86-1.86-8.926-2.504-11.664-1.063-3.614,1.902-1.731,6.352,2.691,6.352h1.648v18.738c0,10.312,0.188,19.262,0.43,19.891,0.242,0.628,1.055,1.152,1.809,1.152zm-2.328-41.996c-0.911-0.039-1.77-0.145-2.395-0.383-0.633-0.242-1.133-0.731-1.133-1.086,0-0.84,8.477-0.863,8.996-0.023,0.559,0.906-2.734,1.601-5.468,1.492zm-14.465-21.69c2.73,0.109,6.027-0.59,5.468-1.493-0.519-0.839-8.07-0.816-8.589,0.024-0.219,0.355,0.121,0.844,0.746,1.086,0.625,0.238,1.461,0.347,2.375,0.383z"/>
</clipPath>
<linearGradient id="linearGradient3274" y2="-34.837" gradientUnits="userSpaceOnUse" y1="-30.431" x2="-197" x1="-32.617">
<stop stop-color="#f6ffff" offset="0"/>
<stop stop-color="#7b7f7f" offset="1"/>
</linearGradient>
<filter id="filter4232-6-0-8" width="1" y="0" x="0" height="1" color-interpolation-filters="sRGB">
<feColorMatrix type="luminanceToAlpha" result="result2"/>
<feComposite k4="0" in2="SourceGraphic" k3="2" k2="0" k1="0" result="result4" in="result2" operator="arithmetic"/>
<feBlend in="result4" result="result3" in2="result2" mode="multiply"/>
<feComposite operator="in" in2="SourceGraphic" in="result3"/>
</filter>
<clipPath id="clipPath3112-8" clipPathUnits="userSpaceOnUse">
<path d="m-178.33-200.16,136.87,0,0,279.27-136.87,0,0-279.27z"/>
</clipPath>
<linearGradient id="linearGradient3116-1" y2="-34.837" gradientUnits="userSpaceOnUse" x2="-197" y1="-30.431" x1="-32.617">
<stop stop-color="#FFF" stop-opacity="0.46956588" offset="0"/>
<stop stop-color="#FFF" stop-opacity="0" offset="1"/>
</linearGradient>
<mask id="mask3122-9" height="1" width="1" y="0" x="0" maskUnits="userSpaceOnUse">
<g clip-path="url(#clipPath3112-8)">
<path d="m-178.33-200.16,136.87,0,0,279.27-136.87,0,0-279.27z" fill="url(#linearGradient3116-1)"/>
</g>
</mask>
</defs>
<g transform="matrix(1.25,0,0,-1.25,979.78546,171.848)" clip-path="url(#clipPath3104)">
<g transform="matrix(0.723307,0,0,-0.723307,163.98491,618.22409)">
<g mask="url(#mask3122)">
<path d="M83.086,762.1c-12.77-0.29-25.406-8.1-32.887-23.71-4.59-9.582-5.742-14.801-5.742-26.399,0-13.32,2.574-22.543,9.109-32.73,1.231-1.918,2.118-3.602,1.969-3.731-0.152-0.129-2.715-0.945-5.695-1.832-6.184-1.828-11.004-4.402-12.637-6.734-0.246-0.352-0.437-0.981-0.586-2.352-0.152-1.367-0.262-3.461-0.34-6.781s2.266-13.437,2.239-19.641c-0.032-6.203-2.422-8.5-2.422-18.511v-11.414s-0.813-7.723,0-11.438c0.816-3.719,4.633-6.226,4.769-10.355,0.141-4.125-3.715-7.758-3.707-10.621,0.012-2.864,1.582-4.184,1.582-4.184,5.93-5.203,19.614-8.652,38.223-9.648,7.152-0.387,20.465,0.257,28.754,1.398,12.535,1.727,22.644,5.402,25.789,9.402,1.504,1.914,1.516,2.328,1.516,46.996v45.047l-1.899,2.262c-2.285,2.711-5.555,4.449-12.254,6.531-2.754,0.856-5.445,1.688-5.965,1.852-0.683,0.215-0.441,0.965,0.86,2.668,2.828,3.711,6.789,12.652,8.383,18.918,2.777,10.89,1.726,27.117-2.438,37.433-7.508,18.578-22.145,27.907-36.621,27.575zm-3.524-58.926c3.161-0.098,5.051-3.485,8.543-3.684,17.481-1,28.907-7.027,25.34-13.383-1.441-2.562-6.57-5.617-11.89-7.074-5.055-1.387-23.309-2.051-28.934-1.039-11.473,2.059-18.734,7.227-16.953,12.047,0.539,1.457-0.168,5.172,1.809,6.398,1.976,1.227,6.644-0.035,9.628,0.836,1.497,0.434,4.668,0.293,6.805,1.606,2.137,1.308,3.235,4.051,5.02,4.246,0.222,0.027,0.422,0.055,0.632,0.047zm-10.261-28.97c2.394,0,4.847-0.207,6.961-0.793,6.758-1.875,8.09-2.148,8.09-2.148s0.011-1.199,0.046-3.344c0.036-2.144,0.09-5.254,0.137-9.062,0.047-3.813,0.082-7.274,0.113-12.274,0.028-5-3.132-11.266-3.144-16.976-0.012-5.711,3.41-12.434,4.656-18.375,1.223-5.817,0.586-11.895,0.41-17.586-0.175-5.696-2.652-14.918-0.566-19.442,0.945-2.047,3.723-5.863,3.277-9.629-33.289-0.644-46.605,6.711-48.304,10.262-1.696,3.555,4.16,7.254,4.339,11.438,0.184,4.183-4.164,7.726-5.128,13.562-0.969,5.836,0.035,13.988,0.699,21s1.703,13.566,1.785,21c0.082,7.43-7.348,19.551-1.715,24.434,5.629,4.879,18.148,6.937,18.148,6.937s4.922,0.992,10.196,0.996zm5.851-7.687-0.019-30.606-0.024-30.601-2.328-1.086c-7.078-3.289,1.531-8.489,9.469-5.719,3.004,1.047,3.723,3.398,1.582,5.129-0.887,0.723-2.375,1.312-3.32,1.312h-1.719l-0.203,30.559-0.18,30.562-1.629,0.223-1.629,0.227zm18.153-0.09c1.308,0,1.379-0.867,1.379-19.824v-19.797l1.785-0.453c0.984-0.246,2.148-1.129,2.597-1.969,0.676-1.254,0.551-1.801-0.675-3.027-1.86-1.86-8.926-2.504-11.664-1.063-3.614,1.902-1.731,6.352,2.691,6.352h1.648v18.738c0,10.312,0.188,19.262,0.43,19.891,0.242,0.628,1.055,1.152,1.809,1.152zm-2.328-41.996c-0.911-0.039-1.77-0.145-2.395-0.383-0.633-0.242-1.133-0.731-1.133-1.086,0-0.84,8.477-0.863,8.996-0.023,0.559,0.906-2.734,1.601-5.468,1.492zm-14.465-21.69c2.73,0.109,6.027-0.59,5.468-1.493-0.519-0.839-8.07-0.816-8.589,0.024-0.219,0.355,0.121,0.844,0.746,1.086,0.625,0.238,1.461,0.347,2.375,0.383z" fill="url(#linearGradient3274)"/>
</g>
</g>
</g>
<g transform="matrix(0.90413375,0,0,0.90413375,-167.2505,960.46719)">
<g mask="url(#mask3122-9)">
<path d="M83.086,762.1c-12.77-0.29-25.406-8.1-32.887-23.71-4.59-9.582-5.742-14.801-5.742-26.399,0-13.32,2.574-22.543,9.109-32.73,1.231-1.918,2.118-3.602,1.969-3.731-0.152-0.129-2.715-0.945-5.695-1.832-6.184-1.828-11.004-4.402-12.637-6.734-0.246-0.352-0.437-0.981-0.586-2.352-0.152-1.367-0.262-3.461-0.34-6.781s2.266-13.437,2.239-19.641c-0.032-6.203-2.422-8.5-2.422-18.511v-11.414s-0.813-7.723,0-11.438c0.816-3.719,4.633-6.226,4.769-10.355,0.141-4.125-3.715-7.758-3.707-10.621,0.012-2.864,1.582-4.184,1.582-4.184,5.93-5.203,19.614-8.652,38.223-9.648,7.152-0.387,20.465,0.257,28.754,1.398,12.535,1.727,22.644,5.402,25.789,9.402,1.504,1.914,1.516,2.328,1.516,46.996v45.047l-1.899,2.262c-2.285,2.711-5.555,4.449-12.254,6.531-2.754,0.856-5.445,1.688-5.965,1.852-0.683,0.215-0.441,0.965,0.86,2.668,2.828,3.711,6.789,12.652,8.383,18.918,2.777,10.89,1.726,27.117-2.438,37.433-7.508,18.578-22.145,27.907-36.621,27.575zm-3.524-58.926c3.161-0.098,5.051-3.485,8.543-3.684,17.481-1,28.907-7.027,25.34-13.383-1.441-2.562-6.57-5.617-11.89-7.074-5.055-1.387-23.309-2.051-28.934-1.039-11.473,2.059-18.734,7.227-16.953,12.047,0.539,1.457-0.168,5.172,1.809,6.398,1.976,1.227,6.644-0.035,9.628,0.836,1.497,0.434,4.668,0.293,6.805,1.606,2.137,1.308,3.235,4.051,5.02,4.246,0.222,0.027,0.422,0.055,0.632,0.047zm-10.261-28.97c2.394,0,4.847-0.207,6.961-0.793,6.758-1.875,8.09-2.148,8.09-2.148s0.011-1.199,0.046-3.344c0.036-2.144,0.09-5.254,0.137-9.062,0.047-3.813,0.082-7.274,0.113-12.274,0.028-5-3.132-11.266-3.144-16.976-0.012-5.711,3.41-12.434,4.656-18.375,1.223-5.817,0.586-11.895,0.41-17.586-0.175-5.696-2.652-14.918-0.566-19.442,0.945-2.047,3.723-5.863,3.277-9.629-33.289-0.644-46.605,6.711-48.304,10.262-1.696,3.555,4.16,7.254,4.339,11.438,0.184,4.183-4.164,7.726-5.128,13.562-0.969,5.836,0.035,13.988,0.699,21s1.703,13.566,1.785,21c0.082,7.43-7.348,19.551-1.715,24.434,5.629,4.879,18.148,6.937,18.148,6.937s4.922,0.992,10.196,0.996zm5.851-7.687-0.019-30.606-0.024-30.601-2.328-1.086c-7.078-3.289,1.531-8.489,9.469-5.719,3.004,1.047,3.723,3.398,1.582,5.129-0.887,0.723-2.375,1.312-3.32,1.312h-1.719l-0.203,30.559-0.18,30.562-1.629,0.223-1.629,0.227zm18.153-0.09c1.308,0,1.379-0.867,1.379-19.824v-19.797l1.785-0.453c0.984-0.246,2.148-1.129,2.597-1.969,0.676-1.254,0.551-1.801-0.675-3.027-1.86-1.86-8.926-2.504-11.664-1.063-3.614,1.902-1.731,6.352,2.691,6.352h1.648v18.738c0,10.312,0.188,19.262,0.43,19.891,0.242,0.628,1.055,1.152,1.809,1.152zm-2.328-41.996c-0.911-0.039-1.77-0.145-2.395-0.383-0.633-0.242-1.133-0.731-1.133-1.086,0-0.84,8.477-0.863,8.996-0.023,0.559,0.906-2.734,1.601-5.468,1.492zm-14.465-21.69c2.73,0.109,6.027-0.59,5.468-1.493-0.519-0.839-8.07-0.816-8.589,0.024-0.219,0.355,0.121,0.844,0.746,1.086,0.625,0.238,1.461,0.347,2.375,0.383z" fill="url(#linearGradient3274)"/>
</g>
</g>
<g fill-rule="nonzero" fill="#141414" transform="matrix(0.49441858,0,0,0.49441755,-1.682245,123.77779)">
<path d="m858.13-21.385c-6.3087,8.1938-33.008-1.3275-11.626,8.6188,3.77,2.1038,17.935-4.36,11.626-8.6188z" transform="matrix(1.5855275,0,0,1.4823277,-1245.717,55.216136)" filter="url(#filter4232-6-0-8)"/>
<path d="m838.91,135.33c-23.266-1.245-40.38-5.5712-47.788-12.08l-3.2962-2.89v-57.12c0-50.062,0.1712-57.362,1.3962-59.116,2.0413-2.91,8.0583-6.1144,15.781-8.4025,3.732-1.1057,6.9337-2.1438,7.125-2.3,0.185-0.16125-0.9188-2.2512-2.4563-4.6487-8.1687-12.734-11.378-24.268-11.378-40.918,0-14.498,0.76986-21.177,7.1538-33.004,19.946-41.625,69.229-38.886,86.885,4.83,5.21,12.89,6.5375,33.179,3.0662,46.791-1.9925,7.8325-6.9587,19.014-10.494,23.652-1.625,2.1288-1.9238,3.0562-1.0688,3.325,0.6488,0.205,3.9988,1.245,7.4463,2.315,8.3737,2.6025,12.466,4.785,15.322,8.1737l2.3725,2.8225v56.317c0,55.83-0.015,56.339-1.8988,58.731-3.9312,5-16.549,9.6038-32.222,11.762-10.356,1.4262-27.011,2.2412-35.948,1.7575zm6.6075-45.6c3.75-1.3088,4.6675-4.2588,1.9963-6.4262-1.1125-0.89875-2.9925-1.635-4.175-1.635h-2.1525l-0.235-38.204-0.2338-38.199-2.0362-0.2875-2.0313-0.2875-0.025,38.261-0.019,38.261-2.92,1.3575c-8.8425,4.1112,1.9037,10.615,11.831,7.1588zm-11.07-3.4475c-0.2787-0.445,0.1413-1.055,0.9225-1.3575,3.125-1.2012,10.732-0.14125,9.805,1.3675-0.6487,1.045-10.078,1.04-10.728-0.01zm31.26-25.136c1.5338-1.5338,1.685-2.1975,0.84-3.77-0.5612-1.05-2.0262-2.1588-3.2525-2.4712l-2.2362-0.55625v-24.765c0-23.696-0.072-24.766-1.7088-24.766-0.9425,0-1.9625,0.64-2.2612,1.4262-0.3025,0.79-0.5513,11.978-0.5513,24.868v23.432h-2.0562c-5.5313,0-7.885,5.5475-3.3688,7.925,3.4225,1.8025,12.271,1.0012,14.595-1.3225zm-13.691-1.9875c0-0.445,0.6437-1.055,1.43-1.3525,3.135-1.2012,10.742-0.1475,9.81,1.3625-0.65,1.0488-11.24,1.04-11.24-0.01zm15.714-65.304c6.6513-1.8212,14.989-10.434,16.786-13.643,4.4575-7.9388-9.8338-15.492-31.685-16.738-18.633-1.065-37.841,4.5362-40.538,11.821-2.2263,6.02,5.8924,16.781,20.234,19.353,7.0262,1.265,28.885,0.93815,35.202-0.79435z" transform="matrix(1.5855275,0,0,1.4823277,-1245.717,55.216136)" filter="url(#filter4232-6-0-8)"/>
</g>
</svg>
